# xmcd
#
# Track frame offsets: 
#        150
#        13503
#        28596
#        40060
#        54179
#        66992
#        78477
#        92085
#        104256
#        116697
#        128403
#        140520
#        152358
#        165258
#
# Disc length: 2342 seconds
#
# Revision: 0
# Processed by: cddbd v1.5.2PL0 Copyright (c) Steve Scherf et al.
# Submitted via: ExactAudioCopyFreeDBPlugin 1.0
#
DISCID=a109240e
DTITLE=B.B. King - Anthology - Dejavu Definitive Gold [Disc 1]
DYEAR=2010
DGENRE=General Electric Blues
TTITLE0=Bad Luck
TTITLE1=B.B.'s Boogie
TTITLE2=B.B.'s Blues
TTITLE3=Blind Love
TTITLE4=Boogie Woogie Woman
TTITLE5=Bye Bye Baby
TTITLE6=Crying Won't Help
TTITLE7=Dark Is The Night (part1)
TTITLE8=Dark Is The Night (part2)
TTITLE9=Did You ever Love A Woman ?
TTITLE10=Don't You Wand A Man Like Me ?
TTITLE11=Early Every Morning
TTITLE12=Every Day (I Have The Blues)
TTITLE13=Fine Looking Woman
EXTD=
EXTT0=
EXTT1=
EXTT2=
EXTT3=
EXTT4=
EXTT5=
EXTT6=
EXTT7=
EXTT8=
EXTT9=
EXTT10=
EXTT11=
EXTT12=
EXTT13=
PLAYORDER=
